<svg xmlns="http://www.w3.org/2000/svg" width="25" height="25" viewBox="0 0 25 25"><g transform="translate(-1.562 -1.563)"><path d="M23.491,5.86a2.011,2.011,0,1,0-3.067-2.545A12.353,12.353,0,0,0,19.038,2.6a1.979,1.979,0,0,0-2.646-.817,12.5,12.5,0,1,0,10.17,12.28,12.442,12.442,0,0,0-3.07-8.2ZM21.9,11.893c-.035-.042-.067-.087-.1-.128l-1.451-1.644a1.221,1.221,0,0,1,.624-.443,2.016,2.016,0,0,0,1.5,1.5,1.219,1.219,0,0,1-.574.711ZM12.852,6a2.018,2.018,0,0,1,2.016-2.016,1.959,1.959,0,0,1,.462.06,2.017,2.017,0,0,0,1.494,1.494,1.959,1.959,0,0,1,.06.462,2.008,2.008,0,0,1-.339,1.108,8.775,8.775,0,0,0-3.436-.7c-.071,0-.141,0-.211.006A1.99,1.99,0,0,1,12.852,6ZM19.667,9.35a8.771,8.771,0,0,0-1.8-1.546,1.207,1.207,0,1,1,1.8,1.546ZM13.109,7.208A7.966,7.966,0,0,1,19.08,9.9L21.2,12.3a5.337,5.337,0,0,1-1.042,7.972L19.062,21l-1.835,1.375a4.812,4.812,0,0,1-5.972-.153,14.783,14.783,0,0,0-2.12-1.472L8.1,20.153A6.565,6.565,0,0,1,8.558,8.512L9.72,7.966a8.01,8.01,0,0,1,3.39-.758Zm9.823,3.226a1.21,1.21,0,1,1,1.21-1.21A1.211,1.211,0,0,1,22.933,10.434Zm-.806-7.258a1.21,1.21,0,1,1-1.21,1.21A1.211,1.211,0,0,1,22.126,3.176Zm0,3.226a2,2,0,0,0,.66-.12,11.7,11.7,0,0,1,.845,1.058,1.991,1.991,0,0,0-.7-.132,2.016,2.016,0,0,0-1.979,1.651c-.032.006-.065.014-.1.021a2.007,2.007,0,0,0-3.337-1.923A2.831,2.831,0,0,0,17.691,6a2.908,2.908,0,0,0-.037-.441A2.016,2.016,0,0,0,19.3,3.614c.287.144.567.3.841.468a1.888,1.888,0,0,0-.031.3A2.018,2.018,0,0,0,22.126,6.4ZM18.5,3.579a1.21,1.21,0,1,1-1.21-1.21A1.211,1.211,0,0,1,18.5,3.579ZM14.062,25.756A11.693,11.693,0,1,1,15.605,2.474a2,2,0,0,0-.3.74,2.784,2.784,0,0,0-.441-.038A2.826,2.826,0,0,0,12.046,6a2.758,2.758,0,0,0,.04.466,8.833,8.833,0,0,0-2.711.772l-1.161.546A7.373,7.373,0,0,0,7.7,20.855l1.039.595a13.935,13.935,0,0,1,2,1.391,5.621,5.621,0,0,0,6.972.177l1.817-1.363L20.6,20.94a6.13,6.13,0,0,0,1.778-8.394A2.034,2.034,0,0,0,23.3,11.2a2.019,2.019,0,0,0,1.6-1.54A11.7,11.7,0,0,1,14.062,25.756Z" transform="translate(0 0)"/><path d="M20.312,42.725c0,2.019,1.278,3.662,2.848,3.662s2.848-1.643,2.848-3.662-1.278-3.662-2.848-3.662S20.312,40.706,20.312,42.725Zm4.883,0c0,1.571-.912,2.848-2.035,2.848s-2.035-1.278-2.035-2.848.912-2.848,2.035-2.848,2.035,1.278,2.035,2.848Z" transform="translate(-13.924 -27.859)"/></g></svg>