<svg xmlns="http://www.w3.org/2000/svg" width="22.5" height="25" viewBox="0 0 22.5 25"><path d="M26.92,4.7a.514.514,0,0,0-.377-.094.491.491,0,0,0-.326.2,6.381,6.381,0,0,1-.589.7L20.4,1.347c.113-.2.223-.386.336-.562h0a.523.523,0,0,0-.144-.724.517.517,0,0,0-.383-.083.486.486,0,0,0-.321.219,9.775,9.775,0,0,0-.517.907l-.1.2a8.4,8.4,0,0,0-.491,6.019,9.749,9.749,0,0,0-4.783,1.043,5.554,5.554,0,0,0-2.643,3.475,9.082,9.082,0,0,0,.325,4.773c-2.265.037-4.979.214-6.95,2.913a.513.513,0,0,0,.108.715.516.516,0,0,0,.709-.109c.093-.13.2-.261.31-.4l5.275,4.273v.052a.524.524,0,0,0,.041.824.508.508,0,0,0,.7-.146A8.263,8.263,0,0,0,12.99,17.61a9.42,9.42,0,0,0,5.134-1.246h0a5.426,5.426,0,0,0,2.146-2.84,8.719,8.719,0,0,0-.2-5.211c2.276-.047,5.016-.214,6.965-2.918a.523.523,0,0,0,.087-.38.487.487,0,0,0-.2-.313Zm-7.9,3.647v.043a16.329,16.329,0,0,1,.517,2.339L16.765,8.507a17.846,17.846,0,0,1,2.259-.162ZM11.625,23.1,6.583,19.017a5.263,5.263,0,0,1,1.726-.943l3.909,3.2h0a6.859,6.859,0,0,1-.595,1.829ZM9.556,17.782a18.7,18.7,0,0,1,2.394-.151,10.551,10.551,0,0,1,.357,2.4Zm3.17-1.188v-.042a16.776,16.776,0,0,1-.517-2.37l2.844,2.251a17.756,17.756,0,0,1-2.322.161Zm3.619-.464-4.137-3.257a5.6,5.6,0,0,1,.693-2.142l5.326,4.284a5.229,5.229,0,0,1-1.9,1.115Zm2.534-1.9L13.527,9.94a5.315,5.315,0,0,1,1.96-1.152l4.064,3.257h0a5.605,5.605,0,0,1-.693,2.184Zm.946-6.915a10.763,10.763,0,0,1-.357-2.356l2.714,2.209h0a19.008,19.008,0,0,1-2.379.146Zm3.619-.432L19.531,3.712a6.968,6.968,0,0,1,.414-1.449l4.892,3.924h0a5.451,5.451,0,0,1-1.417.693Z" transform="translate(-4.628 0.032)"/></svg>